<svg id="Camada_1" data-name="Camada 1" xmlns="http://www.w3.org/2000/svg" viewBox="0 0 1080 1080"><rect x="760.74" y="619.77" width="212.69" height="494.62" rx="89.7" transform="translate(-359.16 867.08) rotate(-45)" style="fill:#fff"/><path d="M455.2,122.41a331.4,331.4,0,1,1-125.29,24.36A331.84,331.84,0,0,1,455.2,122.41M455.2,0A453.8,453.8,0,0,0,133.32,133.32c-177.76,177.77-177.76,466,0,643.75a455.21,455.21,0,0,0,643.75,0c177.76-177.77,177.76-466,0-643.75A453.78,453.78,0,0,0,455.2,0Z" transform="translate(0 0)" style="fill:#fff"/></svg>